<mxfile host="Electron" agent="Mozilla/5.0 (X11; Linux x86_64) AppleWebKit/537.36 (KHTML, like Gecko) draw.io/28.1.2 Chrome/138.0.7204.243 Electron/37.4.0 Safari/537.36" version="28.1.2">
  <diagram name="第 1 页" id="FGGuAt8Rrx4PTVafgH-0">
    <mxGraphModel dx="938" dy="581" grid="1" gridSize="10" guides="1" tooltips="1" connect="1" arrows="1" fold="1" page="1" pageScale="1" pageWidth="827" pageHeight="1169" math="0" shadow="0">
      <root>
        <mxCell id="0" />
        <mxCell id="1" parent="0" />
        <mxCell id="PxmSNstuETSj8fjZK2mL-1" value="&lt;font face=&quot;Times New Roman&quot;&gt;&lt;u&gt;CName&lt;/u&gt;&lt;/font&gt;" style="rounded=0;whiteSpace=wrap;html=1;" parent="1" vertex="1">
          <mxGeometry x="120" y="240" width="50" height="20" as="geometry" />
        </mxCell>
        <mxCell id="PxmSNstuETSj8fjZK2mL-2" value="&lt;font face=&quot;Times New Roman&quot;&gt;COffice&lt;/font&gt;" style="rounded=0;whiteSpace=wrap;html=1;" parent="1" vertex="1">
          <mxGeometry x="170" y="240" width="50" height="20" as="geometry" />
        </mxCell>
        <mxCell id="PxmSNstuETSj8fjZK2mL-6" value="&lt;font face=&quot;Times New Roman&quot;&gt;CPhone&lt;/font&gt;" style="rounded=0;whiteSpace=wrap;html=1;" parent="1" vertex="1">
          <mxGeometry x="220" y="240" width="50" height="20" as="geometry" />
        </mxCell>
        <mxCell id="PxmSNstuETSj8fjZK2mL-8" value="&lt;font face=&quot;Times New Roman&quot;&gt;COLLEGE&lt;/font&gt;" style="text;html=1;align=center;verticalAlign=middle;whiteSpace=wrap;rounded=0;" parent="1" vertex="1">
          <mxGeometry x="120" y="220" width="60" height="20" as="geometry" />
        </mxCell>
        <mxCell id="PxmSNstuETSj8fjZK2mL-9" value="&lt;font face=&quot;Times New Roman&quot;&gt;&lt;u&gt;Id&lt;/u&gt;&lt;/font&gt;" style="rounded=0;whiteSpace=wrap;html=1;" parent="1" vertex="1">
          <mxGeometry x="120" y="170" width="50" height="20" as="geometry" />
        </mxCell>
        <mxCell id="PxmSNstuETSj8fjZK2mL-10" value="&lt;font face=&quot;Times New Roman&quot;&gt;Rank&lt;/font&gt;" style="rounded=0;whiteSpace=wrap;html=1;" parent="1" vertex="1">
          <mxGeometry x="170" y="170" width="50" height="20" as="geometry" />
        </mxCell>
        <mxCell id="PxmSNstuETSj8fjZK2mL-11" value="&lt;font face=&quot;Times New Roman&quot;&gt;IName&lt;/font&gt;" style="rounded=0;whiteSpace=wrap;html=1;" parent="1" vertex="1">
          <mxGeometry x="220" y="170" width="50" height="20" as="geometry" />
        </mxCell>
        <mxCell id="PxmSNstuETSj8fjZK2mL-12" value="&lt;font face=&quot;Times New Roman&quot;&gt;INSTRUCTOR&lt;/font&gt;" style="text;html=1;align=center;verticalAlign=middle;whiteSpace=wrap;rounded=0;" parent="1" vertex="1">
          <mxGeometry x="120" y="150" width="80" height="20" as="geometry" />
        </mxCell>
        <mxCell id="PxmSNstuETSj8fjZK2mL-13" value="&lt;font face=&quot;Times New Roman&quot;&gt;IOffice&lt;/font&gt;" style="rounded=0;whiteSpace=wrap;html=1;" parent="1" vertex="1">
          <mxGeometry x="270" y="170" width="50" height="20" as="geometry" />
        </mxCell>
        <mxCell id="PxmSNstuETSj8fjZK2mL-15" value="&lt;font face=&quot;Times New Roman&quot;&gt;IPhone&lt;/font&gt;" style="rounded=0;whiteSpace=wrap;html=1;" parent="1" vertex="1">
          <mxGeometry x="320" y="170" width="50" height="20" as="geometry" />
        </mxCell>
        <mxCell id="PxmSNstuETSj8fjZK2mL-17" value="&lt;font face=&quot;Times New Roman&quot;&gt;&lt;u&gt;DName&lt;/u&gt;&lt;/font&gt;" style="rounded=0;whiteSpace=wrap;html=1;" parent="1" vertex="1">
          <mxGeometry x="120" y="300" width="50" height="20" as="geometry" />
        </mxCell>
        <mxCell id="PxmSNstuETSj8fjZK2mL-18" value="&lt;font face=&quot;Times New Roman&quot;&gt;DCode&lt;/font&gt;" style="rounded=0;whiteSpace=wrap;html=1;" parent="1" vertex="1">
          <mxGeometry x="170" y="300" width="50" height="20" as="geometry" />
        </mxCell>
        <mxCell id="PxmSNstuETSj8fjZK2mL-19" value="&lt;font face=&quot;Times New Roman&quot;&gt;DOffice&lt;/font&gt;" style="rounded=0;whiteSpace=wrap;html=1;" parent="1" vertex="1">
          <mxGeometry x="220" y="300" width="50" height="20" as="geometry" />
        </mxCell>
        <mxCell id="PxmSNstuETSj8fjZK2mL-20" value="&lt;font face=&quot;Times New Roman&quot;&gt;DEPT&lt;/font&gt;" style="text;html=1;align=center;verticalAlign=middle;whiteSpace=wrap;rounded=0;" parent="1" vertex="1">
          <mxGeometry x="120" y="280" width="40" height="20" as="geometry" />
        </mxCell>
        <mxCell id="PxmSNstuETSj8fjZK2mL-21" value="&lt;font face=&quot;Times New Roman&quot;&gt;DPhone&lt;/font&gt;" style="rounded=0;whiteSpace=wrap;html=1;" parent="1" vertex="1">
          <mxGeometry x="270" y="300" width="50" height="20" as="geometry" />
        </mxCell>
        <mxCell id="wNJozsmkvN_UzGk9LZLu-2" value="&lt;font face=&quot;Times New Roman&quot;&gt;&lt;u&gt;CCode&lt;/u&gt;&lt;/font&gt;" style="rounded=0;whiteSpace=wrap;html=1;" vertex="1" parent="1">
          <mxGeometry x="120" y="370" width="50" height="20" as="geometry" />
        </mxCell>
        <mxCell id="wNJozsmkvN_UzGk9LZLu-3" value="&lt;font face=&quot;Times New Roman&quot;&gt;Credits&lt;/font&gt;" style="rounded=0;whiteSpace=wrap;html=1;" vertex="1" parent="1">
          <mxGeometry x="170" y="370" width="50" height="20" as="geometry" />
        </mxCell>
        <mxCell id="wNJozsmkvN_UzGk9LZLu-4" value="&lt;font face=&quot;Times New Roman&quot;&gt;CoName&lt;/font&gt;" style="rounded=0;whiteSpace=wrap;html=1;" vertex="1" parent="1">
          <mxGeometry x="220" y="370" width="50" height="20" as="geometry" />
        </mxCell>
        <mxCell id="wNJozsmkvN_UzGk9LZLu-5" value="&lt;font face=&quot;Times New Roman&quot;&gt;COURSE&lt;/font&gt;" style="text;html=1;align=center;verticalAlign=middle;whiteSpace=wrap;rounded=0;" vertex="1" parent="1">
          <mxGeometry x="120" y="350" width="60" height="20" as="geometry" />
        </mxCell>
        <mxCell id="wNJozsmkvN_UzGk9LZLu-6" value="&lt;font face=&quot;Times New Roman&quot;&gt;Level&lt;/font&gt;" style="rounded=0;whiteSpace=wrap;html=1;" vertex="1" parent="1">
          <mxGeometry x="270" y="370" width="50" height="20" as="geometry" />
        </mxCell>
        <mxCell id="wNJozsmkvN_UzGk9LZLu-7" value="&lt;font face=&quot;Times New Roman&quot;&gt;CDecs&lt;/font&gt;" style="rounded=0;whiteSpace=wrap;html=1;" vertex="1" parent="1">
          <mxGeometry x="320" y="370" width="50" height="20" as="geometry" />
        </mxCell>
        <mxCell id="wNJozsmkvN_UzGk9LZLu-8" value="&lt;font face=&quot;Times New Roman&quot;&gt;&lt;u&gt;SId&lt;/u&gt;&lt;/font&gt;" style="rounded=0;whiteSpace=wrap;html=1;" vertex="1" parent="1">
          <mxGeometry x="120" y="430" width="50" height="20" as="geometry" />
        </mxCell>
        <mxCell id="wNJozsmkvN_UzGk9LZLu-9" value="&lt;font face=&quot;Times New Roman&quot;&gt;DOB&lt;/font&gt;" style="rounded=0;whiteSpace=wrap;html=1;" vertex="1" parent="1">
          <mxGeometry x="170" y="430" width="50" height="20" as="geometry" />
        </mxCell>
        <mxCell id="wNJozsmkvN_UzGk9LZLu-10" value="&lt;font face=&quot;Times New Roman&quot;&gt;FName&lt;/font&gt;" style="rounded=0;whiteSpace=wrap;html=1;" vertex="1" parent="1">
          <mxGeometry x="220" y="430" width="50" height="20" as="geometry" />
        </mxCell>
        <mxCell id="wNJozsmkvN_UzGk9LZLu-11" value="&lt;font face=&quot;Times New Roman&quot;&gt;STUDENT&lt;/font&gt;" style="text;html=1;align=center;verticalAlign=middle;whiteSpace=wrap;rounded=0;" vertex="1" parent="1">
          <mxGeometry x="120" y="410" width="60" height="20" as="geometry" />
        </mxCell>
        <mxCell id="wNJozsmkvN_UzGk9LZLu-12" value="&lt;font face=&quot;Times New Roman&quot;&gt;MName&lt;/font&gt;" style="rounded=0;whiteSpace=wrap;html=1;" vertex="1" parent="1">
          <mxGeometry x="270" y="430" width="50" height="20" as="geometry" />
        </mxCell>
        <mxCell id="wNJozsmkvN_UzGk9LZLu-13" value="&lt;font face=&quot;Times New Roman&quot;&gt;LName&lt;/font&gt;" style="rounded=0;whiteSpace=wrap;html=1;" vertex="1" parent="1">
          <mxGeometry x="320" y="430" width="50" height="20" as="geometry" />
        </mxCell>
        <mxCell id="wNJozsmkvN_UzGk9LZLu-14" value="&lt;font face=&quot;Times New Roman&quot;&gt;Add&lt;span style=&quot;white-space: pre;&quot;&gt;&#x9;&lt;/span&gt;&lt;/font&gt;" style="rounded=0;whiteSpace=wrap;html=1;" vertex="1" parent="1">
          <mxGeometry x="370" y="430" width="50" height="20" as="geometry" />
        </mxCell>
        <mxCell id="wNJozsmkvN_UzGk9LZLu-15" value="&lt;font face=&quot;Times New Roman&quot;&gt;Phone&lt;/font&gt;" style="rounded=0;whiteSpace=wrap;html=1;" vertex="1" parent="1">
          <mxGeometry x="420" y="430" width="50" height="20" as="geometry" />
        </mxCell>
        <mxCell id="wNJozsmkvN_UzGk9LZLu-16" value="&lt;font face=&quot;Times New Roman&quot;&gt;Major&lt;/font&gt;" style="rounded=0;whiteSpace=wrap;html=1;" vertex="1" parent="1">
          <mxGeometry x="470" y="430" width="50" height="20" as="geometry" />
        </mxCell>
        <mxCell id="wNJozsmkvN_UzGk9LZLu-17" value="&lt;font face=&quot;Times New Roman&quot;&gt;&lt;u&gt;SecId&lt;/u&gt;&lt;/font&gt;" style="rounded=0;whiteSpace=wrap;html=1;" vertex="1" parent="1">
          <mxGeometry x="120" y="490" width="50" height="20" as="geometry" />
        </mxCell>
        <mxCell id="wNJozsmkvN_UzGk9LZLu-18" value="&lt;font face=&quot;Times New Roman&quot;&gt;SecNo&lt;/font&gt;" style="rounded=0;whiteSpace=wrap;html=1;" vertex="1" parent="1">
          <mxGeometry x="170" y="490" width="50" height="20" as="geometry" />
        </mxCell>
        <mxCell id="wNJozsmkvN_UzGk9LZLu-19" value="&lt;font face=&quot;Times New Roman&quot;&gt;Sem&lt;/font&gt;" style="rounded=0;whiteSpace=wrap;html=1;" vertex="1" parent="1">
          <mxGeometry x="220" y="490" width="50" height="20" as="geometry" />
        </mxCell>
        <mxCell id="wNJozsmkvN_UzGk9LZLu-20" value="&lt;font face=&quot;Times New Roman&quot;&gt;SECTION&lt;/font&gt;" style="text;html=1;align=center;verticalAlign=middle;whiteSpace=wrap;rounded=0;" vertex="1" parent="1">
          <mxGeometry x="120" y="470" width="60" height="20" as="geometry" />
        </mxCell>
        <mxCell id="wNJozsmkvN_UzGk9LZLu-21" value="&lt;font face=&quot;Times New Roman&quot;&gt;Year&lt;/font&gt;" style="rounded=0;whiteSpace=wrap;html=1;" vertex="1" parent="1">
          <mxGeometry x="270" y="490" width="50" height="20" as="geometry" />
        </mxCell>
        <mxCell id="wNJozsmkvN_UzGk9LZLu-22" value="&lt;font face=&quot;Times New Roman&quot;&gt;BIdg&lt;/font&gt;" style="rounded=0;whiteSpace=wrap;html=1;" vertex="1" parent="1">
          <mxGeometry x="320" y="490" width="50" height="20" as="geometry" />
        </mxCell>
        <mxCell id="wNJozsmkvN_UzGk9LZLu-23" value="&lt;font face=&quot;Times New Roman&quot;&gt;RoomNo&lt;/font&gt;" style="rounded=0;whiteSpace=wrap;html=1;" vertex="1" parent="1">
          <mxGeometry x="370" y="490" width="60" height="20" as="geometry" />
        </mxCell>
        <mxCell id="wNJozsmkvN_UzGk9LZLu-24" value="&lt;font face=&quot;Times New Roman&quot;&gt;DaysTime&lt;/font&gt;" style="rounded=0;whiteSpace=wrap;html=1;" vertex="1" parent="1">
          <mxGeometry x="430" y="490" width="60" height="20" as="geometry" />
        </mxCell>
        <mxCell id="wNJozsmkvN_UzGk9LZLu-28" style="edgeStyle=orthogonalEdgeStyle;rounded=0;orthogonalLoop=1;jettySize=auto;html=1;exitX=0.5;exitY=0;exitDx=0;exitDy=0;entryX=0.5;entryY=1;entryDx=0;entryDy=0;" edge="1" parent="1" source="wNJozsmkvN_UzGk9LZLu-26" target="PxmSNstuETSj8fjZK2mL-9">
          <mxGeometry relative="1" as="geometry">
            <Array as="points">
              <mxPoint x="295" y="210" />
              <mxPoint x="145" y="210" />
            </Array>
          </mxGeometry>
        </mxCell>
        <mxCell id="wNJozsmkvN_UzGk9LZLu-26" value="&lt;font face=&quot;Times New Roman&quot;&gt;DeanId&lt;/font&gt;" style="rounded=0;whiteSpace=wrap;html=1;" vertex="1" parent="1">
          <mxGeometry x="270" y="240" width="50" height="20" as="geometry" />
        </mxCell>
        <mxCell id="wNJozsmkvN_UzGk9LZLu-33" style="edgeStyle=orthogonalEdgeStyle;rounded=0;orthogonalLoop=1;jettySize=auto;html=1;entryX=0.5;entryY=1;entryDx=0;entryDy=0;exitX=0.5;exitY=0;exitDx=0;exitDy=0;" edge="1" parent="1" source="wNJozsmkvN_UzGk9LZLu-32" target="PxmSNstuETSj8fjZK2mL-1">
          <mxGeometry relative="1" as="geometry">
            <Array as="points">
              <mxPoint x="345" y="280" />
              <mxPoint x="145" y="280" />
            </Array>
          </mxGeometry>
        </mxCell>
        <mxCell id="wNJozsmkvN_UzGk9LZLu-32" value="&lt;font face=&quot;Times New Roman&quot;&gt;ColId&lt;/font&gt;" style="rounded=0;whiteSpace=wrap;html=1;" vertex="1" parent="1">
          <mxGeometry x="320" y="300" width="50" height="20" as="geometry" />
        </mxCell>
        <mxCell id="wNJozsmkvN_UzGk9LZLu-35" style="edgeStyle=orthogonalEdgeStyle;rounded=0;orthogonalLoop=1;jettySize=auto;html=1;exitX=0.5;exitY=1;exitDx=0;exitDy=0;entryX=0.5;entryY=1;entryDx=0;entryDy=0;" edge="1" parent="1" source="wNJozsmkvN_UzGk9LZLu-34" target="PxmSNstuETSj8fjZK2mL-17">
          <mxGeometry relative="1" as="geometry">
            <Array as="points">
              <mxPoint x="395" y="330" />
              <mxPoint x="145" y="330" />
            </Array>
          </mxGeometry>
        </mxCell>
        <mxCell id="wNJozsmkvN_UzGk9LZLu-34" value="&lt;font face=&quot;Times New Roman&quot;&gt;DeptId&lt;/font&gt;" style="rounded=0;whiteSpace=wrap;html=1;" vertex="1" parent="1">
          <mxGeometry x="370" y="170" width="50" height="20" as="geometry" />
        </mxCell>
        <mxCell id="wNJozsmkvN_UzGk9LZLu-36" value="&lt;font face=&quot;Times New Roman&quot;&gt;DeptId&lt;/font&gt;" style="rounded=0;whiteSpace=wrap;html=1;" vertex="1" parent="1">
          <mxGeometry x="370" y="370" width="50" height="20" as="geometry" />
        </mxCell>
        <mxCell id="wNJozsmkvN_UzGk9LZLu-37" style="edgeStyle=orthogonalEdgeStyle;rounded=0;orthogonalLoop=1;jettySize=auto;html=1;exitX=0.5;exitY=0;exitDx=0;exitDy=0;entryX=0.643;entryY=1.002;entryDx=0;entryDy=0;entryPerimeter=0;" edge="1" parent="1" source="wNJozsmkvN_UzGk9LZLu-36" target="PxmSNstuETSj8fjZK2mL-17">
          <mxGeometry relative="1" as="geometry">
            <Array as="points">
              <mxPoint x="395" y="340" />
              <mxPoint x="152" y="340" />
            </Array>
          </mxGeometry>
        </mxCell>
        <mxCell id="wNJozsmkvN_UzGk9LZLu-39" style="edgeStyle=orthogonalEdgeStyle;rounded=0;orthogonalLoop=1;jettySize=auto;html=1;exitX=0.5;exitY=0;exitDx=0;exitDy=0;entryX=0.75;entryY=1;entryDx=0;entryDy=0;" edge="1" parent="1" source="wNJozsmkvN_UzGk9LZLu-38" target="PxmSNstuETSj8fjZK2mL-9">
          <mxGeometry relative="1" as="geometry">
            <Array as="points">
              <mxPoint x="515" y="470" />
              <mxPoint x="580" y="470" />
              <mxPoint x="580" y="220" />
              <mxPoint x="158" y="220" />
            </Array>
          </mxGeometry>
        </mxCell>
        <mxCell id="wNJozsmkvN_UzGk9LZLu-38" value="&lt;font face=&quot;Times New Roman&quot;&gt;InsId&lt;/font&gt;" style="rounded=0;whiteSpace=wrap;html=1;" vertex="1" parent="1">
          <mxGeometry x="490" y="490" width="50" height="20" as="geometry" />
        </mxCell>
        <mxCell id="wNJozsmkvN_UzGk9LZLu-40" value="&lt;font face=&quot;Times New Roman&quot;&gt;CourseId&lt;/font&gt;" style="rounded=0;whiteSpace=wrap;html=1;" vertex="1" parent="1">
          <mxGeometry x="540" y="490" width="50" height="20" as="geometry" />
        </mxCell>
        <mxCell id="wNJozsmkvN_UzGk9LZLu-41" style="edgeStyle=orthogonalEdgeStyle;rounded=0;orthogonalLoop=1;jettySize=auto;html=1;entryX=0.382;entryY=1.037;entryDx=0;entryDy=0;entryPerimeter=0;" edge="1" parent="1" source="wNJozsmkvN_UzGk9LZLu-40" target="wNJozsmkvN_UzGk9LZLu-2">
          <mxGeometry relative="1" as="geometry">
            <Array as="points">
              <mxPoint x="600" y="500" />
              <mxPoint x="600" y="410" />
              <mxPoint x="139" y="410" />
            </Array>
          </mxGeometry>
        </mxCell>
        <mxCell id="wNJozsmkvN_UzGk9LZLu-42" value="&lt;font face=&quot;Times New Roman&quot;&gt;DeptId&lt;/font&gt;" style="rounded=0;whiteSpace=wrap;html=1;" vertex="1" parent="1">
          <mxGeometry x="520" y="430" width="50" height="20" as="geometry" />
        </mxCell>
        <mxCell id="wNJozsmkvN_UzGk9LZLu-43" style="edgeStyle=orthogonalEdgeStyle;rounded=0;orthogonalLoop=1;jettySize=auto;html=1;exitX=0.5;exitY=0;exitDx=0;exitDy=0;entryX=0.815;entryY=0.991;entryDx=0;entryDy=0;entryPerimeter=0;" edge="1" parent="1" source="wNJozsmkvN_UzGk9LZLu-42" target="PxmSNstuETSj8fjZK2mL-17">
          <mxGeometry relative="1" as="geometry">
            <Array as="points">
              <mxPoint x="545" y="350" />
              <mxPoint x="161" y="350" />
            </Array>
          </mxGeometry>
        </mxCell>
        <mxCell id="wNJozsmkvN_UzGk9LZLu-55" style="edgeStyle=orthogonalEdgeStyle;rounded=0;orthogonalLoop=1;jettySize=auto;html=1;entryX=0.5;entryY=1;entryDx=0;entryDy=0;" edge="1" parent="1" source="wNJozsmkvN_UzGk9LZLu-44" target="wNJozsmkvN_UzGk9LZLu-17">
          <mxGeometry relative="1" as="geometry">
            <Array as="points">
              <mxPoint x="145" y="590" />
              <mxPoint x="280" y="590" />
              <mxPoint x="280" y="525" />
              <mxPoint x="145" y="525" />
            </Array>
          </mxGeometry>
        </mxCell>
        <mxCell id="wNJozsmkvN_UzGk9LZLu-44" value="&lt;font face=&quot;Times New Roman&quot;&gt;&lt;u&gt;SecId&lt;/u&gt;&lt;/font&gt;" style="rounded=0;whiteSpace=wrap;html=1;" vertex="1" parent="1">
          <mxGeometry x="120" y="550" width="50" height="20" as="geometry" />
        </mxCell>
        <mxCell id="wNJozsmkvN_UzGk9LZLu-67" style="edgeStyle=orthogonalEdgeStyle;rounded=0;orthogonalLoop=1;jettySize=auto;html=1;entryX=0.5;entryY=1;entryDx=0;entryDy=0;exitX=0.5;exitY=1;exitDx=0;exitDy=0;" edge="1" parent="1" source="wNJozsmkvN_UzGk9LZLu-45" target="wNJozsmkvN_UzGk9LZLu-8">
          <mxGeometry relative="1" as="geometry">
            <Array as="points">
              <mxPoint x="195" y="580" />
              <mxPoint x="90" y="580" />
              <mxPoint x="90" y="465" />
              <mxPoint x="145" y="465" />
            </Array>
          </mxGeometry>
        </mxCell>
        <mxCell id="wNJozsmkvN_UzGk9LZLu-45" value="&lt;font face=&quot;Times New Roman&quot;&gt;&lt;u&gt;StuId&lt;/u&gt;&lt;/font&gt;" style="rounded=0;whiteSpace=wrap;html=1;" vertex="1" parent="1">
          <mxGeometry x="170" y="550" width="50" height="20" as="geometry" />
        </mxCell>
        <mxCell id="wNJozsmkvN_UzGk9LZLu-47" value="&lt;font face=&quot;Times New Roman&quot;&gt;TAKE_COURSE&lt;/font&gt;" style="text;html=1;align=center;verticalAlign=middle;whiteSpace=wrap;rounded=0;" vertex="1" parent="1">
          <mxGeometry x="120" y="530" width="90" height="20" as="geometry" />
        </mxCell>
        <mxCell id="wNJozsmkvN_UzGk9LZLu-58" value="&lt;font face=&quot;Times New Roman&quot;&gt;Grade&lt;/font&gt;" style="rounded=0;whiteSpace=wrap;html=1;" vertex="1" parent="1">
          <mxGeometry x="220" y="550" width="50" height="20" as="geometry" />
        </mxCell>
        <mxCell id="wNJozsmkvN_UzGk9LZLu-59" value="&lt;font face=&quot;Times New Roman&quot;&gt;&lt;u&gt;InsId&lt;/u&gt;&lt;/font&gt;" style="rounded=0;whiteSpace=wrap;html=1;" vertex="1" parent="1">
          <mxGeometry x="120" y="620" width="40" height="20" as="geometry" />
        </mxCell>
        <mxCell id="wNJozsmkvN_UzGk9LZLu-66" style="edgeStyle=orthogonalEdgeStyle;rounded=0;orthogonalLoop=1;jettySize=auto;html=1;exitX=0.5;exitY=1;exitDx=0;exitDy=0;entryX=0.25;entryY=1;entryDx=0;entryDy=0;" edge="1" parent="1" source="wNJozsmkvN_UzGk9LZLu-60" target="PxmSNstuETSj8fjZK2mL-17">
          <mxGeometry relative="1" as="geometry">
            <Array as="points">
              <mxPoint x="185" y="650" />
              <mxPoint x="100" y="650" />
              <mxPoint x="100" y="334" />
              <mxPoint x="133" y="334" />
            </Array>
          </mxGeometry>
        </mxCell>
        <mxCell id="wNJozsmkvN_UzGk9LZLu-60" value="&lt;font face=&quot;Times New Roman&quot;&gt;&lt;u&gt;DeptId&lt;/u&gt;&lt;/font&gt;" style="rounded=0;whiteSpace=wrap;html=1;" vertex="1" parent="1">
          <mxGeometry x="160" y="620" width="50" height="20" as="geometry" />
        </mxCell>
        <mxCell id="wNJozsmkvN_UzGk9LZLu-61" value="&lt;font face=&quot;Times New Roman&quot;&gt;CHAIR&lt;/font&gt;" style="text;html=1;align=center;verticalAlign=middle;whiteSpace=wrap;rounded=0;" vertex="1" parent="1">
          <mxGeometry x="120" y="600" width="50" height="20" as="geometry" />
        </mxCell>
        <mxCell id="wNJozsmkvN_UzGk9LZLu-62" value="&lt;font face=&quot;Times New Roman&quot;&gt;CStartDate&lt;/font&gt;" style="rounded=0;whiteSpace=wrap;html=1;" vertex="1" parent="1">
          <mxGeometry x="210" y="620" width="60" height="20" as="geometry" />
        </mxCell>
        <mxCell id="wNJozsmkvN_UzGk9LZLu-65" style="edgeStyle=orthogonalEdgeStyle;rounded=0;orthogonalLoop=1;jettySize=auto;html=1;exitX=0.5;exitY=1;exitDx=0;exitDy=0;entryX=0.289;entryY=0.979;entryDx=0;entryDy=0;entryPerimeter=0;" edge="1" parent="1" source="wNJozsmkvN_UzGk9LZLu-59" target="PxmSNstuETSj8fjZK2mL-9">
          <mxGeometry relative="1" as="geometry">
            <Array as="points">
              <mxPoint x="140" y="660" />
              <mxPoint x="110" y="660" />
              <mxPoint x="110" y="203" />
              <mxPoint x="135" y="203" />
            </Array>
          </mxGeometry>
        </mxCell>
      </root>
    </mxGraphModel>
  </diagram>
</mxfile>
